<?xml version="1.0" standalone="no"?>
<!DOCTYPE svg PUBLIC "-//W3C//DTD SVG 20010904//EN"
 "http://www.w3.org/TR/2001/REC-SVG-20010904/DTD/svg10.dtd">
<svg version="1.0" xmlns="http://www.w3.org/2000/svg"
 width="473.000000pt" height="386.000000pt" viewBox="0 0 473.000000 386.000000"
 preserveAspectRatio="xMidYMid meet">

<g transform="translate(0.000000,386.000000) scale(0.100000,-0.100000)"
fill="#000000" stroke="none">
<path d="M560 3420 l0 -380 385 0 385 0 0 380 0 380 -385 0 -385 0 0 -380z
m660 -4 l0 -275 -272 2 -273 2 -3 273 -2 272 275 0 275 0 0 -274z"/>
<path d="M780 3420 l0 -160 165 0 165 0 0 160 0 160 -165 0 -165 0 0 -160z"/>
<path d="M1440 3689 l0 -110 53 3 52 3 3 52 3 52 52 3 52 3 3 53 3 52 -110 0
-111 0 0 -111z"/>
<path d="M1770 3745 l0 -55 50 0 50 0 0 55 0 55 -50 0 -50 0 0 -55z"/>
<path d="M2312 3693 l3 -108 55 -2 c30 -1 79 -2 108 -2 l52 -1 0 -111 0 -110
-52 1 c-29 1 -79 1 -110 1 l-58 -1 0 -55 0 -54 -162 2 -163 2 -3 107 -3 106
58 4 c32 1 82 2 111 0 l52 -3 0 -50 0 -49 55 0 55 0 0 50 0 50 -55 0 -55 0 0
110 0 110 -49 0 -50 0 -3 -52 -3 -53 -217 -3 -217 -2 -3 -108 -3 -107 -52 -3
-53 -3 0 -49 0 -50 218 -2 217 -3 3 -52 3 -52 52 -3 52 -3 3 -52 3 -53 50 0
49 0 0 -110 0 -110 -105 0 -105 0 0 -110 0 -110 50 0 50 0 0 55 0 55 55 0 55
0 0 55 0 55 55 0 55 0 0 55 0 55 55 0 55 0 0 -110 0 -110 -55 0 -55 0 0 -55 0
-55 -55 0 -55 0 0 -55 0 -55 -50 0 -50 0 0 -55 0 -55 -110 0 -110 0 0 -55 0
-55 55 0 55 0 0 -55 0 -55 50 0 50 0 0 55 0 55 55 0 55 0 0 55 0 55 110 0 110
0 0 -55 0 -55 55 0 55 0 0 55 0 55 -55 0 -55 0 0 55 0 55 55 0 55 0 0 55 0 55
55 0 55 0 0 -55 0 -55 110 0 110 0 0 55 0 55 55 0 55 0 0 55 0 55 55 0 55 0 0
-55 0 -55 55 0 55 0 0 55 0 55 55 0 55 0 0 -55 0 -55 110 0 110 0 0 -55 0 -55
55 0 55 0 0 -55 0 -55 50 0 50 0 0 55 0 55 55 0 55 0 0 110 0 110 55 0 55 0 0
-220 0 -220 55 0 55 0 0 165 0 165 55 0 55 0 0 55 0 55 -110 0 -110 0 0 55 0
55 110 0 110 0 0 55 0 55 -110 0 -110 0 0 -55 0 -55 -55 0 -55 0 0 55 0 55
-50 0 -50 0 -1 -57 c0 -32 0 -106 0 -165 l1 -108 -60 0 -60 0 0 55 0 55 -55 0
-55 0 0 110 0 110 -50 0 -50 0 0 -110 0 -110 -55 0 -54 0 -3 108 -3 107 -52 3
-53 3 0 55 0 54 55 0 55 0 0 215 0 215 -55 0 -55 0 0 110 0 110 -110 0 -110 0
0 55 0 55 -110 0 -110 0 0 -55 0 -55 110 0 110 0 0 -110 0 -110 -55 0 -55 0 0
55 0 55 -56 0 -55 0 3 -52 3 -53 53 -3 52 -3 0 -50 0 -49 110 0 110 0 0 50 0
50 55 0 55 0 0 -215 0 -215 -55 0 -55 0 0 50 0 50 -55 0 -55 0 0 -50 0 -50 55
0 55 0 0 -55 0 -55 -165 0 -165 0 0 55 0 55 55 0 55 0 0 50 0 50 -55 0 -55 0
0 -50 0 -50 -55 0 -55 0 0 270 0 270 -55 0 -55 0 0 55 0 55 55 0 55 0 0 55 0
55 -55 0 -55 0 0 -55 0 -55 -55 0 -55 0 0 55 0 55 -55 0 -56 0 3 -107z m-434
-275 l-3 -53 -52 -3 -53 -3 0 55 0 56 56 0 55 0 -3 -52z m652 -268 l0 -110 55
0 55 0 0 -55 0 -55 55 0 55 0 0 -55 0 -55 55 0 55 0 0 -55 0 -55 -55 0 -55 0
0 -55 0 -55 -55 0 -55 0 0 55 0 55 -55 0 -55 0 0 -55 0 -55 -55 0 -55 0 0 55
0 55 55 0 55 0 0 165 0 165 -55 0 -55 0 0 110 0 110 55 0 55 0 0 -110z m-220
-55 l0 -55 -55 0 -55 0 0 55 0 55 55 0 55 0 0 -55z m880 -220 l0 -55 -55 0
-55 0 0 55 0 55 55 0 55 0 0 -55z"/>
<path d="M2640 2765 l0 -55 55 0 55 0 0 55 0 55 -55 0 -55 0 0 -55z"/>
<path d="M3410 3420 l0 -380 380 0 380 0 0 380 0 380 -380 0 -380 0 0 -380z
m650 -4 l0 -275 -272 2 -273 2 -3 273 -2 272 275 0 275 0 0 -274z"/>
<path d="M3628 3473 c-2 -60 -2 -132 0 -160 l3 -53 160 0 159 0 0 160 0 160
-159 0 -160 0 -3 -107z"/>
<path d="M1440 3420 l0 -50 55 0 55 0 0 50 0 50 -55 0 -55 0 0 -50z"/>
<path d="M2860 3200 l0 -50 55 0 55 0 0 50 0 50 -55 0 -55 0 0 -50z"/>
<path d="M1440 3035 l0 -105 -165 0 -165 0 0 -55 0 -55 165 0 165 0 0 55 0 55
55 0 55 0 0 105 0 105 -55 0 -55 0 0 -105z"/>
<path d="M1660 2980 l0 -160 55 0 55 0 0 -220 0 -220 -110 0 -110 0 0 55 0 55
55 0 55 0 0 110 0 110 -110 0 -110 0 0 -55 0 -55 -55 0 -55 0 0 55 0 55 -165
0 -165 0 0 110 0 110 -110 0 -110 0 0 -55 0 -55 -55 0 -55 0 0 55 0 55 -55 0
-55 0 0 -55 0 -55 55 0 55 0 0 -110 0 -110 110 0 110 0 0 -55 0 -55 55 0 55 0
0 -55 0 -55 -55 0 -55 0 0 -165 0 -165 -55 0 -55 0 0 -110 0 -110 -55 0 -55 0
0 -55 0 -55 -55 0 -55 0 0 -50 0 -50 165 0 165 0 0 -55 0 -55 55 0 55 0 0 270
0 270 55 0 55 0 0 -55 0 -55 110 0 110 0 0 -55 0 -55 -55 0 -55 0 0 -50 0 -50
55 0 55 0 0 50 0 50 55 0 55 0 0 -55 0 -55 -55 0 -55 0 0 -55 0 -55 -55 0 -55
0 0 55 0 55 -55 0 -55 0 0 -110 0 -110 -55 0 -55 0 0 -50 0 -50 110 0 110 0 0
-55 0 -55 55 0 55 0 0 -55 0 -55 -110 0 -110 0 0 55 0 55 -55 0 -55 0 0 50 0
50 -52 1 c-29 0 -78 1 -108 2 l-55 2 -3 52 -3 52 -52 3 c-29 2 -78 1 -109 0
l-58 -4 0 -49 0 -49 110 0 110 0 0 -55 0 -55 -55 0 -55 0 0 -55 0 -55 -55 0
-55 0 0 -55 0 -55 55 0 55 0 0 55 0 55 110 0 110 0 0 -55 0 -55 275 0 275 0 0
-165 0 -165 55 0 55 0 0 55 0 55 55 0 55 0 0 -55 0 -55 55 0 55 0 0 -55 0 -55
-165 0 -165 0 0 -110 0 -110 55 0 55 0 0 -55 0 -55 -55 0 -55 0 0 -55 0 -55
165 0 165 0 0 55 0 55 50 0 50 0 0 55 0 55 -105 0 -105 0 0 54 0 55 53 3 52 3
3 53 3 52 55 0 54 0 0 -55 0 -55 55 0 55 0 0 -165 0 -165 105 0 105 0 0 110 0
110 110 0 110 0 0 -55 0 -55 -55 0 -55 0 0 -55 0 -55 55 0 55 0 0 55 0 55 55
0 55 0 0 -55 0 -55 330 0 330 0 0 55 0 55 55 0 55 0 0 -55 0 -55 55 0 55 0 0
55 0 55 50 0 50 0 0 110 0 110 -50 0 -50 0 0 55 0 55 160 0 160 0 0 55 0 55
55 0 55 0 0 -55 0 -55 55 0 55 0 0 55 0 55 55 0 55 0 0 -110 0 -110 55 0 55 0
0 110 0 110 -55 0 -55 0 0 55 0 55 -110 0 -110 0 0 55 0 55 -55 0 -55 0 0 55
0 55 55 0 55 0 0 55 0 55 -55 0 -55 0 0 55 0 55 -55 0 -55 0 0 50 0 50 -50 0
-50 0 0 -50 0 -50 -165 0 -165 0 0 55 0 55 160 0 160 0 0 50 0 50 -50 0 -50 0
-1 58 c0 31 0 81 1 110 l1 52 -55 0 -56 0 0 55 0 55 -55 0 -55 0 0 54 0 55 53
3 52 3 3 53 3 52 55 0 54 0 0 -109 0 -110 160 0 160 0 0 55 0 54 55 0 55 0 0
-105 0 -105 110 0 110 0 0 105 0 105 55 0 55 0 0 55 0 55 -55 0 -55 0 0 55 0
55 -159 0 -160 0 -3 -52 -3 -53 -162 -3 -163 -2 0 55 0 55 50 0 50 0 0 55 0
55 -50 0 -50 0 0 55 0 55 -55 0 -55 0 0 55 0 55 -165 0 -165 0 0 -55 0 -55
-110 0 -110 0 0 -55 0 -55 -55 0 -55 0 0 -55 0 -55 55 0 55 0 0 -55 0 -55 55
0 55 0 0 -55 0 -55 55 0 55 0 0 55 0 55 55 0 55 0 0 -110 0 -110 -55 0 -55 0
0 -50 0 -50 55 0 55 0 0 50 0 50 55 0 55 0 0 -49 0 -50 53 -3 52 -3 0 -55 0
-55 -52 -3 -53 -3 0 55 0 56 -55 0 -55 0 0 -55 0 -55 -110 0 -110 0 0 110 0
110 -55 0 -55 0 0 -110 0 -110 -55 0 -55 0 0 -105 0 -105 55 0 55 0 0 -55 0
-55 -110 0 -110 0 0 49 0 50 -52 3 -53 3 -3 108 -3 107 -54 0 -55 0 0 -55 0
-55 -55 0 -55 0 0 -105 0 -105 -105 0 -105 0 0 -55 0 -55 160 0 160 0 0 -55 0
-55 -55 0 -55 0 0 -55 0 -55 -160 0 -160 0 0 -55 0 -54 108 -3 107 -3 2 -107
3 -108 -60 0 -60 0 0 55 0 55 -55 0 -55 0 0 55 0 55 -105 0 -105 0 0 55 0 55
105 0 105 0 0 55 0 55 -50 0 -49 0 -3 108 -3 107 -52 3 -53 3 0 -55 0 -56 -54
0 -55 0 -3 52 -3 53 -107 3 -108 3 0 49 0 49 -52 3 -53 3 -3 58 -3 57 111 0
110 0 0 55 0 55 165 0 165 0 0 55 0 55 105 0 105 0 0 50 0 50 -159 0 -160 0
-3 -52 -3 -53 -52 -3 -53 -3 0 55 0 56 -55 0 -55 0 0 54 0 55 53 3 52 3 3 108
3 107 54 0 55 0 0 -55 0 -55 160 0 160 0 0 55 0 55 -55 0 -55 0 0 55 0 55 -50
0 -50 0 0 55 0 55 50 0 50 0 0 55 0 55 55 0 55 0 0 55 0 55 -55 0 -55 0 0 110
0 110 -50 0 -50 0 -1 108 c0 59 0 131 1 160 l1 52 -55 0 -56 0 0 -160z m-660
-325 l0 -55 -55 0 -55 0 0 55 0 55 55 0 55 0 0 -55z m330 -110 l0 -55 -110 0
-110 0 0 55 0 55 110 0 110 0 0 -55z m-220 -220 l0 -55 55 0 55 0 0 55 0 55
55 0 55 0 0 -55 0 -55 -55 0 -55 0 0 -55 0 -55 55 0 55 0 0 -55 0 -55 -55 0
-55 0 0 55 0 55 -110 0 -110 0 0 110 0 110 55 0 55 0 0 -55z m440 -55 l0 -110
-55 0 -55 0 0 110 0 110 55 0 55 0 0 -110z m1640 0 l0 -110 -55 0 -55 0 0 55
0 55 -55 0 -55 0 0 -55 0 -55 -55 0 -55 0 0 55 0 55 55 0 55 0 0 55 0 55 110
0 110 0 0 -110z m-1420 -55 l0 -55 -55 0 -55 0 0 55 0 55 55 0 55 0 0 -55z
m1640 0 l0 -55 -55 0 -55 0 0 55 0 55 55 0 55 0 0 -55z m540 -220 l0 -55 -55
0 -55 0 0 55 0 55 55 0 55 0 0 -55z m-980 -540 l0 -55 55 0 55 0 0 -110 0
-110 55 0 55 0 0 -110 0 -110 -55 0 -55 0 0 55 0 55 -55 0 -55 0 0 -55 0 -55
-165 0 -165 0 0 110 0 110 110 0 110 0 0 104 0 105 -52 3 -53 3 -3 58 -3 57
111 0 110 0 0 -55z m-550 -110 l0 -55 55 0 55 0 0 -55 0 -55 -110 0 -110 0 0
110 0 110 55 0 55 0 0 -55z m-870 -220 l0 -55 -55 0 -55 0 0 55 0 55 55 0 55
0 0 -55z m980 -110 l0 -55 -55 0 -55 0 0 -55 0 -55 -110 0 -110 0 0 55 0 55
55 0 55 0 0 55 0 55 110 0 110 0 0 -55z m1098 -112 l2 -163 -165 0 -165 0 0
165 0 165 163 -2 162 -3 3 -162z m-878 -163 l0 -110 -55 0 -55 0 0 -55 0 -55
110 0 110 0 0 55 0 55 55 0 55 0 0 110 0 110 55 0 55 0 0 -110 0 -110 110 0
110 0 0 -55 0 -55 -55 0 -55 0 0 -55 0 -55 -110 0 -110 0 0 -55 0 -55 -110 0
-110 0 0 55 0 55 -55 0 -55 0 0 -55 0 -55 -55 0 -55 0 0 55 0 55 -55 0 -55 0
0 55 0 55 55 0 55 0 0 55 0 55 55 0 55 0 0 110 0 110 55 0 55 0 0 -110z m-440
-110 l0 -110 -55 0 -55 0 0 110 0 110 55 0 55 0 0 -110z m1100 -275 l0 -55
-55 0 -55 0 0 55 0 55 55 0 55 0 0 -55z"/>
<path d="M3410 905 l0 -55 50 0 50 0 0 55 0 55 -50 0 -50 0 0 -55z"/>
<path d="M2530 465 l0 -55 55 0 55 0 0 55 0 55 -55 0 -55 0 0 -55z"/>
<path d="M2860 465 l0 -55 55 0 55 0 0 55 0 55 -55 0 -55 0 0 -55z"/>
<path d="M1880 3090 l0 -50 50 0 50 0 0 50 0 50 -50 0 -50 0 0 -50z"/>
<path d="M1880 2875 l0 -55 50 0 50 0 0 55 0 55 -50 0 -50 0 0 -55z"/>
<path d="M560 2270 l0 -110 110 0 110 0 0 110 0 110 -110 0 -110 0 0 -110z"/>
<path d="M2100 2105 l0 -55 105 0 105 0 0 55 0 55 -105 0 -105 0 0 -55z"/>
<path d="M562 1998 l3 -53 53 -3 52 -3 0 55 0 56 -56 0 -55 0 3 -52z"/>
<path d="M1990 1995 l0 -55 50 0 50 0 0 55 0 55 -50 0 -50 0 0 -55z"/>
<path d="M2100 1885 l0 -55 50 0 50 0 0 -50 0 -50 55 0 55 0 0 105 0 105 -105
0 -105 0 0 -55z"/>
<path d="M2530 1830 l0 -110 -55 0 -55 0 0 -50 0 -50 110 0 110 0 0 160 0 160
-55 0 -55 0 0 -110z"/>
<path d="M2100 1670 l0 -50 50 0 50 0 0 50 0 50 -50 0 -50 0 0 -50z"/>
<path d="M3520 1670 l0 -50 50 0 50 0 0 50 0 50 -50 0 -50 0 0 -50z"/>
<path d="M4060 1670 l0 -50 55 0 55 0 0 50 0 50 -55 0 -55 0 0 -50z"/>
<path d="M1823 1612 l-52 -3 -3 -52 -3 -52 -55 -2 c-30 -1 -79 -2 -107 -2
l-53 -1 0 -50 0 -50 159 0 160 0 3 53 3 52 55 0 55 0 3 -52 3 -53 50 0 49 0 0
105 0 105 -47 1 c-27 0 -75 1 -108 2 -33 1 -83 1 -112 -1z"/>
<path d="M3840 1505 l0 -105 55 0 55 0 0 -55 0 -55 55 0 55 0 0 -55 0 -55 55
0 55 0 0 160 0 160 -55 0 -55 0 0 -56 0 -55 -52 3 -53 3 -3 108 -3 107 -54 0
-55 0 0 -105z"/>
<path d="M1880 1340 l0 -50 50 0 50 0 0 50 0 50 -50 0 -50 0 0 -50z"/>
<path d="M4060 1015 l0 -55 55 0 55 0 0 55 0 55 -55 0 -55 0 0 -55z"/>
<path d="M560 575 l0 -385 385 0 385 0 0 385 0 385 -385 0 -385 0 0 -385z
m660 0 l0 -275 -275 0 -275 0 0 275 0 275 275 0 275 0 0 -275z"/>
<path d="M780 575 l0 -165 165 0 165 0 0 165 0 165 -165 0 -165 0 0 -165z"/>
<path d="M3740 465 l0 -55 50 0 50 0 0 55 0 55 -50 0 -50 0 0 -55z"/>
<path d="M3630 300 l0 -110 50 0 50 0 0 110 0 110 -50 0 -50 0 0 -110z"/>
<path d="M4062 358 l3 -53 53 -3 52 -3 0 55 0 56 -56 0 -55 0 3 -52z"/>
</g>
</svg>
