<?xml version="1.0" standalone="no"?>
<!DOCTYPE svg PUBLIC "-//W3C//DTD SVG 20010904//EN"
 "http://www.w3.org/TR/2001/REC-SVG-20010904/DTD/svg10.dtd">
<svg version="1.0" xmlns="http://www.w3.org/2000/svg"
 width="1366.000000pt" height="768.000000pt" viewBox="0 0 1366.000000 768.000000"
 preserveAspectRatio="xMidYMid meet">

<g transform="translate(0.000000,768.000000) scale(0.100000,-0.100000)"
fill="#000000" stroke="none">
<path d="M1920 7480 l0 -80 80 0 80 0 0 80 0 80 -80 0 -80 0 0 -80z m118 38
c13 -13 16 -57 4 -74 -4 -6 -19 -14 -34 -18 -34 -8 -71 24 -66 57 5 36 71 60
96 35z"/>
<path d="M3389 7531 c-16 -16 -29 -39 -29 -51 0 -28 52 -80 80 -80 12 0 35 13
51 29 16 16 29 39 29 51 0 28 -52 80 -80 80 -12 0 -35 -13 -51 -29z m77 -9 c6
-4 16 -17 22 -28 9 -17 8 -24 -3 -34 -17 -14 -38 -3 -31 16 3 8 -4 23 -16 34
-21 19 -21 20 -2 20 10 0 24 -4 30 -8z m-40 -41 c1 -12 10 -28 20 -36 18 -14
18 -14 -1 -15 -38 0 -74 47 -52 69 16 16 32 8 33 -18z"/>
<path d="M6265 7535 c-33 -32 -33 -78 1 -112 14 -14 28 -22 31 -19 4 3 -2 13
-13 21 -16 13 -16 14 -1 9 21 -8 22 5 1 21 -12 8 -15 20 -10 41 6 26 10 29 46
29 36 0 40 -3 46 -29 5 -22 2 -33 -11 -42 -9 -7 -15 -22 -13 -36 l3 -23 28 27
c35 35 36 80 2 113 -15 16 -36 25 -55 25 -19 0 -40 -9 -55 -25z"/>
<path d="M13160 7525 c0 -33 2 -35 35 -35 33 0 35 2 35 35 0 33 -2 35 -35 35
-33 0 -35 -2 -35 -35z m50 0 c0 -8 -7 -15 -15 -15 -8 0 -15 7 -15 15 0 8 7 15
15 15 8 0 15 -7 15 -15z"/>
<path d="M9140 7491 c-33 -61 -36 -70 -22 -72 7 -2 72 107 72 122 0 25 -22 3
-50 -50z"/>
<path d="M10570 7491 c-33 -61 -36 -70 -22 -72 7 -2 72 107 72 122 0 25 -22 3
-50 -50z"/>
<path d="M13460 7542 c0 -4 5 -13 12 -20 8 -8 8 -15 -2 -27 -17 -20 -5 -32 15
-15 12 10 18 10 30 0 20 -17 32 -5 15 15 -10 12 -10 18 0 30 17 20 5 32 -15
15 -12 -10 -19 -10 -27 -2 -14 14 -28 16 -28 4z"/>
<path d="M568 7529 c-12 -7 -18 -22 -18 -49 0 -42 -9 -54 -34 -44 -24 9 -19
43 7 54 12 5 17 9 10 9 -27 2 -43 -13 -43 -40 0 -22 6 -30 25 -35 35 -9 55 11
55 57 0 41 9 53 34 43 24 -9 19 -43 -6 -54 -13 -5 -18 -9 -11 -9 27 -2 43 13
43 39 0 37 -28 49 -62 29z"/>
<path d="M13130 7500 l0 -40 40 0 c22 0 40 5 40 10 0 6 -13 10 -30 10 -27 0
-30 3 -30 30 0 17 -4 30 -10 30 -5 0 -10 -18 -10 -40z"/>
<path d="M731 7483 c1 -26 4 -38 6 -26 3 13 13 23 26 25 34 5 29 42 -5 46 -27
3 -28 2 -27 -45z m49 22 c0 -8 -9 -15 -20 -15 -11 0 -20 7 -20 15 0 8 9 15 20
15 11 0 20 -7 20 -15z"/>
<path d="M883 7485 c0 -27 2 -38 4 -22 2 15 2 37 0 50 -2 12 -4 0 -4 -28z"/>
<path d="M971 7483 c1 -27 4 -38 6 -25 2 12 8 22 12 22 5 0 16 -10 25 -22 14
-20 15 -20 7 -2 -6 11 -6 26 -1 34 11 18 -6 40 -31 40 -16 0 -19 -7 -18 -47z
m42 22 c1 -5 -6 -11 -15 -13 -11 -2 -18 3 -18 13 0 17 30 18 33 0z"/>
<path d="M1273 7475 c0 -33 2 -45 4 -27 2 18 2 45 0 60 -2 15 -4 0 -4 -33z"/>
<path d="M2171 7483 c1 -26 4 -38 6 -26 3 13 13 23 26 25 34 5 29 42 -5 46
-27 3 -28 2 -27 -45z m49 22 c0 -8 -9 -15 -20 -15 -11 0 -20 7 -20 15 0 8 9
15 20 15 11 0 20 -7 20 -15z"/>
<path d="M2323 7485 c0 -27 2 -38 4 -22 2 15 2 37 0 50 -2 12 -4 0 -4 -28z"/>
<path d="M2651 7483 c1 -27 4 -38 6 -25 2 12 8 22 12 22 5 0 16 -10 25 -22 14
-20 15 -20 7 -2 -6 11 -6 26 -1 34 11 18 -6 40 -31 40 -16 0 -19 -7 -18 -47z
m42 22 c1 -5 -6 -11 -15 -13 -11 -2 -18 3 -18 13 0 17 30 18 33 0z"/>
<path d="M3611 7483 c1 -26 4 -38 6 -26 3 13 13 23 26 25 34 5 29 42 -5 46
-27 3 -28 2 -27 -45z m49 22 c0 -8 -9 -15 -20 -15 -11 0 -20 7 -20 15 0 8 9
15 20 15 11 0 20 -7 20 -15z"/>
<path d="M3692 7485 c1 -45 1 -47 7 -15 l6 35 22 -35 c13 -19 23 -29 23 -22 0
7 -5 18 -10 25 -6 7 -19 23 -30 37 l-19 25 1 -50z"/>
<path d="M3792 7518 c-28 -28 -2 -88 33 -74 21 8 19 46 -2 45 -11 0 -13 -3 -5
-6 19 -7 15 -35 -5 -31 -13 2 -18 13 -18 33 0 24 4 30 22 29 12 0 20 3 17 8
-7 12 -28 10 -42 -4z"/>
<path d="M3889 7519 c-2 -27 3 -64 9 -71 4 -4 6 11 5 33 -1 39 -12 67 -14 38z"/>
<path d="M4033 7515 c-3 -9 -3 -19 1 -22 3 -4 6 2 6 11 0 13 6 17 20 13 11 -3
18 -1 14 4 -9 14 -34 10 -41 -6z"/>
<path d="M4096 7517 c3 -10 9 -15 12 -12 3 3 0 11 -7 18 -10 9 -11 8 -5 -6z"/>
<path d="M5062 7518 c-17 -17 -15 -53 3 -68 17 -14 45 -7 45 12 0 10 -3 9 -9
-1 -14 -21 -41 -5 -41 24 0 29 27 45 42 24 8 -12 9 -11 5 1 -5 19 -29 24 -45
8z"/>
<path d="M5133 7485 c0 -27 2 -38 4 -22 2 15 2 37 0 50 -2 12 -4 0 -4 -28z"/>
<path d="M5269 7519 c-2 -27 3 -64 9 -71 4 -4 6 11 5 33 -1 39 -12 67 -14 38z"/>
<path d="M5322 7518 c-28 -28 -2 -88 33 -74 21 8 19 46 -2 45 -11 0 -13 -3 -5
-6 19 -7 15 -35 -5 -31 -13 2 -18 13 -18 33 0 24 4 30 22 29 12 0 20 3 17 8
-7 12 -28 10 -42 -4z"/>
<path d="M5391 7483 c1 -26 4 -38 6 -26 3 13 13 23 26 25 34 5 29 42 -5 46
-27 3 -28 2 -27 -45z m49 22 c0 -8 -9 -15 -20 -15 -11 0 -20 7 -20 15 0 8 9
15 20 15 11 0 20 -7 20 -15z"/>
<path d="M5472 7523 c12 -3 18 -17 21 -46 l4 -42 1 42 c2 30 7 43 20 46 9 3
-1 5 -23 5 -22 0 -32 -2 -23 -5z"/>
<path d="M6491 7483 c1 -26 4 -38 6 -26 3 13 13 23 26 25 34 5 29 42 -5 46
-27 3 -28 2 -27 -45z m49 22 c0 -8 -9 -15 -20 -15 -11 0 -20 7 -20 15 0 8 9
15 20 15 11 0 20 -7 20 -15z"/>
<path d="M6582 7518 c-28 -28 -2 -88 33 -74 21 8 19 46 -2 45 -11 0 -13 -3 -5
-6 19 -7 15 -35 -5 -31 -13 2 -18 13 -18 33 0 24 4 30 22 29 12 0 20 3 17 8
-7 12 -28 10 -42 -4z"/>
<path d="M6651 7483 c1 -27 4 -38 6 -25 2 12 8 22 12 22 5 0 16 -10 25 -22 14
-20 15 -20 7 -2 -6 11 -6 26 -1 34 11 18 -6 40 -31 40 -16 0 -19 -7 -18 -47z
m42 22 c1 -5 -6 -11 -15 -13 -11 -2 -18 3 -18 13 0 17 30 18 33 0z"/>
<path d="M6823 7485 c0 -27 2 -38 4 -22 2 15 2 37 0 50 -2 12 -4 0 -4 -28z"/>
<path d="M6953 7485 c-1 -27 1 -42 4 -32 5 18 5 18 26 0 19 -16 20 -16 8 -1
-7 10 -11 28 -8 40 6 22 5 22 -8 5 -13 -18 -14 -17 -18 10 -2 15 -4 6 -4 -22z"/>
<path d="M7923 7515 c-3 -9 -3 -19 1 -22 3 -4 6 2 6 11 0 13 6 17 20 13 11 -3
18 -1 14 4 -9 14 -34 10 -41 -6z"/>
<path d="M7986 7517 c3 -10 9 -15 12 -12 3 3 0 11 -7 18 -10 9 -11 8 -5 -6z"/>
<path d="M8082 7518 c-28 -28 -2 -88 33 -74 21 8 19 46 -2 45 -11 0 -13 -3 -5
-6 19 -7 15 -35 -5 -31 -13 2 -18 13 -18 33 0 24 4 30 22 29 12 0 20 3 17 8
-7 12 -28 10 -42 -4z"/>
<path d="M8179 7519 c-2 -27 3 -64 9 -71 4 -4 6 11 5 33 -1 39 -12 67 -14 38z"/>
<path d="M8332 7518 c-17 -17 -15 -53 3 -68 17 -14 45 -7 45 12 0 10 -3 9 -9
-1 -14 -21 -41 -5 -41 24 0 29 27 45 42 24 8 -12 9 -11 5 1 -5 19 -29 24 -45
8z"/>
<path d="M9352 7488 c-2 -46 -1 -48 26 -47 22 1 23 2 5 6 -18 3 -23 13 -26 46
l-4 42 -1 -47z"/>
<path d="M9833 7485 c-1 -27 1 -42 4 -32 5 18 5 18 26 0 19 -16 20 -16 8 -1
-7 10 -11 28 -8 40 6 22 5 22 -8 5 -13 -18 -14 -17 -18 10 -2 15 -4 6 -4 -22z"/>
<path d="M10780 7485 c0 -43 1 -45 28 -44 23 2 24 2 5 6 -13 2 -23 11 -23 18
0 7 10 16 23 18 l22 4 -22 2 c-13 0 -23 7 -23 15 0 8 10 17 23 19 19 4 18 4
-5 6 -27 1 -28 -1 -28 -44z"/>
<path d="M10890 7521 c0 -5 -9 -11 -21 -14 -30 -8 -23 -61 9 -65 20 -3 22 1
22 42 0 25 -2 46 -5 46 -3 0 -5 -4 -5 -9z m-5 -46 c0 -10 -6 -20 -12 -22 -8
-3 -13 5 -13 22 0 17 5 25 13 23 6 -3 12 -13 12 -23z"/>
<path d="M10949 7519 c-2 -27 3 -64 9 -71 4 -4 6 11 5 33 -1 39 -12 67 -14 38z"/>
<path d="M12010 7510 c0 -13 -7 -20 -20 -20 -11 0 -20 -4 -20 -10 0 -5 9 -10
20 -10 13 0 20 -7 20 -20 0 -11 5 -20 10 -20 6 0 10 9 10 20 0 13 7 20 20 20
11 0 20 5 20 10 0 6 -9 10 -20 10 -13 0 -20 7 -20 20 0 11 -4 20 -10 20 -5 0
-10 -9 -10 -20z"/>
<path d="M814 7496 c-10 -26 0 -51 21 -51 16 0 20 7 20 30 0 33 -30 49 -41 21z
m36 -21 c0 -16 -6 -25 -15 -25 -9 0 -15 9 -15 25 0 16 6 25 15 25 9 0 15 -9
15 -25z"/>
<path d="M906 7497 c3 -10 9 -15 12 -12 3 3 0 11 -7 18 -10 9 -11 8 -5 -6z"/>
<path d="M936 7493 c-19 -54 -23 -73 -16 -68 11 7 34 75 27 81 -2 3 -7 -3 -11
-13z"/>
<path d="M1044 7496 c-9 -23 0 -51 16 -52 9 0 10 1 3 3 -21 7 -15 23 8 23 15
0 19 4 15 16 -3 9 -6 18 -6 20 0 11 -31 2 -36 -10z m31 -6 c3 -5 -1 -10 -9
-10 -9 0 -16 5 -16 10 0 6 4 10 9 10 6 0 13 -4 16 -10z"/>
<path d="M1105 7500 c-3 -5 0 -7 8 -4 8 3 18 1 21 -4 3 -5 -4 -12 -15 -15 -27
-7 -20 -32 9 -33 23 -1 28 18 16 50 -7 18 -30 21 -39 6z m30 -40 c-3 -5 -10
-10 -16 -10 -5 0 -9 5 -9 10 0 6 7 10 16 10 8 0 12 -4 9 -10z"/>
<path d="M1172 7465 c-1 -27 2 -45 6 -39 4 6 15 13 25 17 21 8 20 59 -1 63 -7
1 -8 0 -2 -3 16 -7 12 -53 -4 -53 -9 0 -16 13 -19 33 -3 23 -4 18 -5 -18z"/>
<path d="M1599 7498 c11 -15 11 -21 0 -35 -13 -16 -12 -17 4 -4 14 11 20 11
35 0 15 -13 16 -12 3 4 -11 14 -11 20 0 35 13 15 12 16 -3 3 -15 -11 -21 -11
-35 0 -16 13 -17 12 -4 -3z"/>
<path d="M2254 7496 c-10 -26 0 -51 21 -51 16 0 20 7 20 30 0 33 -30 49 -41
21z m36 -21 c0 -16 -6 -25 -15 -25 -9 0 -15 9 -15 25 0 16 6 25 15 25 9 0 15
-9 15 -25z"/>
<path d="M2346 7497 c3 -10 9 -15 12 -12 3 3 0 11 -7 18 -10 9 -11 8 -5 -6z"/>
<path d="M2376 7493 c-19 -54 -23 -73 -16 -68 11 7 34 75 27 81 -2 3 -7 -3
-11 -13z"/>
<path d="M2414 7496 c-8 -22 -1 -49 14 -52 7 -1 8 0 2 3 -14 7 -13 50 3 56 9
4 9 6 -1 6 -7 1 -15 -5 -18 -13z"/>
<path d="M2452 7473 c-2 -30 -7 -43 -19 -46 -17 -4 -17 -5 0 -6 22 -1 30 17
24 61 -3 30 -4 30 -5 -9z"/>
<path d="M2484 7496 c-10 -26 0 -51 21 -51 16 0 20 7 20 30 0 33 -30 49 -41
21z m36 -21 c0 -16 -6 -25 -15 -25 -9 0 -15 9 -15 25 0 16 6 25 15 25 9 0 15
-9 15 -25z"/>
<path d="M2553 7475 c0 -22 2 -30 4 -17 2 12 2 30 0 40 -3 9 -5 -1 -4 -23z"/>
<path d="M2577 7503 c6 -4 13 -22 16 -38 4 -27 5 -27 3 4 0 21 -7 36 -16 38
-10 3 -11 2 -3 -4z"/>
<path d="M2724 7496 c-8 -22 -1 -49 14 -52 7 -1 8 0 2 3 -16 7 -12 21 8 26 16
4 16 5 0 6 -21 1 -24 17 -5 24 9 4 9 6 -1 6 -7 1 -15 -5 -18 -13z"/>
<path d="M3039 7498 c11 -15 11 -21 0 -35 -13 -16 -12 -17 4 -4 14 11 20 11
35 0 15 -13 16 -12 3 4 -11 14 -11 20 0 35 13 15 12 16 -3 3 -15 -11 -21 -11
-35 0 -16 13 -17 12 -4 -3z"/>
<path d="M3934 7496 c-10 -26 0 -51 21 -51 16 0 20 7 20 30 0 33 -30 49 -41
21z m36 -21 c0 -16 -6 -25 -15 -25 -9 0 -15 9 -15 25 0 16 6 25 15 25 9 0 15
-9 15 -25z"/>
<path d="M4182 7485 c0 -16 2 -22 5 -12 2 9 2 23 0 30 -3 6 -5 -1 -5 -18z"/>
<path d="M4479 7498 c11 -15 11 -21 0 -35 -13 -16 -12 -17 4 -4 14 11 20 11
35 0 15 -13 16 -12 3 4 -11 14 -11 20 0 35 13 15 12 16 -3 3 -15 -11 -21 -11
-35 0 -16 13 -17 12 -4 -3z"/>
<path d="M5157 7503 c6 -4 13 -22 16 -38 4 -27 5 -27 3 4 0 21 -7 36 -16 38
-10 3 -11 2 -3 -4z"/>
<path d="M5205 7500 c-3 -5 0 -7 8 -4 8 3 18 1 21 -4 3 -5 -4 -12 -15 -15 -27
-7 -20 -32 9 -33 23 -1 28 18 16 50 -7 18 -30 21 -39 6z m30 -40 c-3 -5 -10
-10 -16 -10 -5 0 -9 5 -9 10 0 6 7 10 16 10 8 0 12 -4 9 -10z"/>
<path d="M5919 7498 c11 -15 11 -21 0 -35 -13 -16 -12 -17 4 -4 14 11 20 11
35 0 15 -13 16 -12 3 4 -11 14 -11 20 0 35 13 15 12 16 -3 3 -15 -11 -21 -11
-35 0 -16 13 -17 12 -4 -3z"/>
<path d="M6752 7465 c-1 -27 2 -45 6 -39 4 6 15 13 25 17 21 8 20 59 -1 63 -7
1 -8 0 -2 -3 16 -7 12 -53 -4 -53 -9 0 -16 13 -19 33 -3 23 -4 18 -5 -18z"/>
<path d="M6853 7475 c0 -22 2 -30 4 -17 2 12 2 30 0 40 -3 9 -5 -1 -4 -23z"/>
<path d="M6883 7475 c0 -22 2 -30 4 -17 2 12 2 30 0 40 -3 9 -5 -1 -4 -23z"/>
<path d="M6907 7503 c6 -4 13 -22 16 -38 4 -27 5 -27 3 4 0 21 -7 36 -16 38
-10 3 -11 2 -3 -4z"/>
<path d="M7014 7496 c-8 -22 -1 -49 14 -52 7 -1 8 0 2 3 -14 7 -13 50 3 56 9
4 9 6 -1 6 -7 1 -15 -5 -18 -13z"/>
<path d="M7349 7498 c11 -15 11 -21 0 -35 -13 -16 -12 -17 4 -4 14 11 20 11
35 0 15 -13 16 -12 3 4 -11 14 -11 20 0 35 13 15 12 16 -3 3 -15 -11 -21 -11
-35 0 -16 13 -17 12 -4 -3z"/>
<path d="M8224 7496 c-10 -26 0 -51 21 -51 16 0 20 7 20 30 0 33 -30 49 -41
21z m36 -21 c0 -16 -6 -25 -15 -25 -9 0 -15 9 -15 25 0 16 6 25 15 25 9 0 15
-9 15 -25z"/>
<path d="M8404 7496 c-10 -26 0 -51 21 -51 16 0 20 7 20 30 0 33 -30 49 -41
21z m36 -21 c0 -16 -6 -25 -15 -25 -9 0 -15 9 -15 25 0 16 6 25 15 25 9 0 15
-9 15 -25z"/>
<path d="M8475 7499 c-11 -16 -1 -19 13 -3 7 8 8 14 3 14 -5 0 -13 -5 -16 -11z"/>
<path d="M8779 7498 c11 -15 11 -21 0 -35 -13 -16 -12 -17 4 -4 14 11 20 11
35 0 15 -13 16 -12 3 4 -11 14 -11 20 0 35 13 15 12 16 -3 3 -15 -11 -21 -11
-35 0 -16 13 -17 12 -4 -3z"/>
<path d="M9414 7496 c-10 -26 0 -51 21 -51 16 0 20 7 20 30 0 33 -30 49 -41
21z m36 -21 c0 -16 -6 -25 -15 -25 -9 0 -15 9 -15 25 0 16 6 25 15 25 9 0 15
-9 15 -25z"/>
<path d="M9484 7496 c-8 -22 -1 -49 14 -52 7 -1 8 0 2 3 -14 7 -13 50 3 56 9
4 9 6 -1 6 -7 1 -15 -5 -18 -13z"/>
<path d="M9522 7473 c-2 -30 -7 -43 -19 -46 -17 -4 -17 -5 0 -6 22 -1 30 17
24 61 -3 30 -4 30 -5 -9z"/>
<path d="M9554 7496 c-10 -26 0 -51 21 -51 16 0 20 7 20 30 0 33 -30 49 -41
21z m36 -21 c0 -16 -6 -25 -15 -25 -9 0 -15 9 -15 25 0 16 6 25 15 25 9 0 15
-9 15 -25z"/>
<path d="M9653 7475 c0 -22 2 -30 4 -17 2 12 2 30 0 40 -3 9 -5 -1 -4 -23z"/>
<path d="M9678 7501 c6 -3 12 -20 15 -36 l4 -30 2 33 c1 41 23 39 32 -4 6 -27
7 -27 8 -4 1 35 -10 48 -43 48 -15 0 -24 -3 -18 -7z"/>
<path d="M9765 7500 c-3 -5 0 -7 8 -4 8 3 18 1 21 -4 3 -5 -4 -12 -15 -15 -27
-7 -20 -32 9 -33 23 -1 28 18 16 50 -7 18 -30 21 -39 6z m30 -40 c-3 -5 -10
-10 -16 -10 -5 0 -9 5 -9 10 0 6 7 10 16 10 8 0 12 -4 9 -10z"/>
<path d="M9894 7496 c-8 -22 -1 -49 14 -52 7 -1 8 0 2 3 -16 7 -12 21 8 26 16
4 16 5 0 6 -21 1 -24 17 -5 24 9 4 9 6 -1 6 -7 1 -15 -5 -18 -13z"/>
<path d="M10209 7498 c11 -15 11 -21 0 -35 -13 -16 -12 -17 4 -4 14 11 20 11
35 0 15 -13 16 -12 3 4 -11 14 -11 20 0 35 13 15 12 16 -3 3 -15 -11 -21 -11
-35 0 -16 13 -17 12 -4 -3z"/>
<path d="M10923 7475 c0 -22 2 -30 4 -17 2 12 2 30 0 40 -3 9 -5 -1 -4 -23z"/>
<path d="M11022 7480 c5 -17 7 -37 4 -45 -3 -8 -3 -15 0 -15 7 0 34 66 33 82
0 7 -5 2 -11 -12 l-10 -25 -9 23 c-13 33 -20 27 -7 -8z"/>
<path d="M11084 7496 c-10 -26 0 -51 21 -51 16 0 20 7 20 30 0 33 -30 49 -41
21z m36 -21 c0 -16 -6 -25 -15 -25 -9 0 -15 9 -15 25 0 16 6 25 15 25 9 0 15
-9 15 -25z"/>
<path d="M11153 7478 c1 -26 7 -34 25 -36 20 -3 22 1 21 35 -1 35 -2 36 -8 9
-8 -40 -28 -44 -35 -7 l-6 31 3 -32z"/>
<path d="M11221 7473 c2 -35 2 -35 6 -8 3 16 10 33 16 37 8 5 6 8 -5 8 -14 0
-18 -8 -17 -37z"/>
<path d="M11294 7496 c-10 -26 0 -51 21 -51 16 0 20 7 20 30 0 33 -30 49 -41
21z m36 -21 c0 -16 -6 -25 -15 -25 -9 0 -15 9 -15 25 0 16 6 25 15 25 9 0 15
-9 15 -25z"/>
<path d="M11639 7498 c11 -15 11 -21 0 -35 -13 -16 -12 -17 4 -4 14 11 21 11
29 3 7 -7 17 -12 23 -12 5 0 1 7 -9 15 -20 15 -20 15 0 30 10 8 14 15 9 15 -6
0 -16 -5 -23 -12 -8 -8 -15 -8 -29 3 -16 13 -17 12 -4 -3z"/>
<path d="M177 7478 c22 -21 23 -21 43 -3 23 21 19 35 -5 15 -12 -10 -19 -10
-27 -2 -7 7 -17 12 -22 12 -6 0 -1 -10 11 -22z"/>
<path d="M4065 7477 c21 -16 5 -33 -21 -23 -9 3 -12 1 -9 -4 8 -13 28 -13 43
2 13 13 -1 38 -21 38 -6 0 -3 -6 8 -13z"/>
<path d="M7052 7470 c0 -14 2 -19 5 -12 2 6 2 18 0 25 -3 6 -5 1 -5 -13z"/>
<path d="M7955 7477 c21 -16 5 -33 -21 -23 -9 3 -12 1 -9 -4 8 -13 28 -13 43
2 13 13 -1 38 -21 38 -6 0 -3 -6 8 -13z"/>
<path d="M6718 7473 c7 -3 16 -2 19 1 4 3 -2 6 -13 5 -11 0 -14 -3 -6 -6z"/>
<path d="M12810 7470 c0 -5 23 -10 50 -10 28 0 50 5 50 10 0 6 -22 10 -50 10
-27 0 -50 -4 -50 -10z"/>
<path d="M4127 7463 c-4 -3 -7 -11 -7 -17 0 -6 5 -5 12 2 6 6 9 14 7 17 -3 3
-9 2 -12 -2z"/>
<path d="M8017 7463 c-4 -3 -7 -11 -7 -17 0 -6 5 -5 12 2 6 6 9 14 7 17 -3 3
-9 2 -12 -2z"/>
<path d="M8477 7449 c7 -7 15 -10 18 -7 3 3 -2 9 -12 12 -14 6 -15 5 -6 -5z"/>
<path d="M12525 7130 c-3 -5 -15 -10 -26 -10 -25 0 -36 -27 -20 -51 8 -15 8
-23 0 -38 -23 -36 -5 -51 61 -51 49 0 62 3 66 18 3 9 10 25 15 35 6 10 6 24 0
35 -5 9 -12 25 -15 35 -3 9 -14 17 -25 17 -11 0 -23 5 -26 10 -3 6 -10 10 -15
10 -5 0 -12 -4 -15 -10z m70 -80 l0 -55 -49 -3 c-57 -4 -73 7 -54 37 10 17 10
25 0 41 -19 31 -6 41 51 38 l52 -3 0 -55z"/>
<path d="M10945 7100 c-3 -11 -15 -20 -25 -20 -26 0 -33 -15 -14 -31 11 -9 14
-22 10 -41 -5 -28 -5 -28 19 -12 22 14 26 14 49 -1 l26 -17 -6 29 c-4 20 -1
33 10 42 23 20 20 31 -10 31 -17 0 -28 6 -31 20 -3 11 -9 20 -13 20 -5 0 -12
-9 -15 -20z m42 -40 c12 0 13 -3 4 -13 -6 -8 -8 -17 -4 -20 3 -4 -6 -7 -20 -7
-17 0 -27 5 -27 15 0 8 -5 15 -11 15 -6 0 -1 9 12 19 19 16 25 17 27 5 2 -8
10 -14 19 -14z"/>
<path d="M11386 7113 c-5 -5 2 -52 9 -61 1 -1 15 2 30 8 23 9 25 13 14 26 -17
20 -45 35 -53 27z"/>
<path d="M11495 7098 l-27 -21 27 -14 c31 -17 30 -17 39 19 8 36 -6 42 -39 16z"/>
<path d="M13014 7107 c-3 -8 -4 -39 -2 -68 l3 -54 65 0 65 0 0 65 0 65 -63 3
c-47 2 -64 -1 -68 -11z m76 -58 l0 -60 -32 3 c-31 3 -33 5 -36 47 -4 59 2 71
38 71 l30 0 0 -61z"/>
<path d="M13430 7105 c0 -8 5 -15 10 -15 6 0 10 7 10 15 0 8 -4 15 -10 15 -5
0 -10 -7 -10 -15z"/>
<path d="M896 7088 c-22 -32 -20 -64 6 -82 31 -22 64 -20 82 6 18 25 12 39 -7
15 -22 -29 -64 -26 -76 6 -15 40 26 78 60 56 12 -8 11 -11 -1 -19 -12 -8 -9
-10 13 -10 21 0 27 5 27 23 0 19 -6 22 -44 25 -37 2 -48 -2 -60 -20z"/>
<path d="M1583 7055 c0 -33 2 -45 4 -27 2 18 2 45 0 60 -2 15 -4 0 -4 -33z"/>
<path d="M2450 7092 c0 -13 -7 -18 -22 -18 -20 1 -23 -4 -23 -34 0 -31 3 -35
28 -36 26 -1 27 1 27 52 0 30 -2 54 -5 54 -3 0 -5 -8 -5 -18z m-5 -52 c0 -27
-22 -39 -31 -16 -8 22 3 49 19 43 6 -2 12 -14 12 -27z"/>
<path d="M1328 7093 c6 -2 12 -9 12 -14 0 -4 -7 -5 -17 -2 -11 4 -14 3 -9 -5
10 -16 33 -15 39 2 7 17 -1 26 -22 25 -10 0 -12 -2 -3 -6z"/>
<path d="M2291 7069 c-6 -18 -9 -34 -7 -36 2 -2 9 10 15 28 6 18 9 34 7 36 -2
2 -9 -10 -15 -28z"/>
<path d="M2512 7084 c-7 -8 -8 -14 -2 -14 5 0 10 -16 10 -35 0 -19 3 -35 8
-35 7 0 8 88 0 95 -1 1 -9 -3 -16 -11z"/>
<path d="M1370 7080 c0 -5 14 -10 30 -10 17 0 30 5 30 10 0 6 -13 10 -30 10
-16 0 -30 -4 -30 -10z"/>
<path d="M1614 7066 c-3 -8 -4 -25 -2 -38 2 -17 9 -23 28 -23 22 0 25 4 25 35
0 29 -4 36 -23 38 -13 2 -24 -3 -28 -12z m41 -26 c0 -27 -22 -39 -31 -16 -8
22 3 49 19 43 6 -2 12 -14 12 -27z"/>
<path d="M1694 7066 c-11 -29 1 -60 26 -67 21 -5 22 -7 8 -14 -9 -4 -23 -3
-30 1 -11 6 -11 4 0 -7 22 -24 47 2 50 52 3 42 1 45 -23 47 -15 1 -28 -4 -31
-12z m41 -26 c0 -27 -22 -39 -31 -16 -8 22 3 49 19 43 6 -2 12 -14 12 -27z"/>
<path d="M1774 7066 c-3 -8 -4 -25 -2 -38 2 -17 9 -23 28 -23 22 0 25 4 25 35
0 29 -4 36 -23 38 -13 2 -24 -3 -28 -12z m41 -26 c0 -27 -22 -39 -31 -16 -8
22 3 49 19 43 6 -2 12 -14 12 -27z"/>
<path d="M1854 7069 c-4 -8 0 -9 15 -4 11 3 21 2 21 -3 0 -5 -9 -12 -21 -15
-31 -8 -21 -41 14 -45 24 -3 27 0 27 25 0 43 -38 71 -56 42z m36 -44 c0 -8 -7
-15 -15 -15 -16 0 -20 12 -8 23 11 12 23 8 23 -8z"/>
<path d="M1933 7040 c0 -25 2 -35 4 -22 2 12 2 32 0 45 -2 12 -4 2 -4 -23z"/>
<path d="M2004 7066 c-16 -43 21 -85 49 -57 9 9 5 11 -13 9 -17 -2 -25 3 -28
16 -6 27 13 42 33 26 13 -11 14 -10 9 4 -8 20 -43 21 -50 2z"/>
<path d="M2074 7066 c-3 -8 -4 -25 -2 -38 2 -17 9 -23 28 -23 22 0 25 4 25 35
0 29 -4 36 -23 38 -13 2 -24 -3 -28 -12z m41 -26 c0 -27 -22 -39 -31 -16 -8
22 3 49 19 43 6 -2 12 -14 12 -27z"/>
<path d="M2151 7036 l2 -41 6 34 c8 43 28 51 37 14 10 -48 12 -49 13 -10 1 49
28 51 34 2 l4 -35 -1 37 -1 38 -47 1 -48 1 1 -41z"/>
<path d="M2343 7073 c-7 -2 -13 -17 -13 -33 0 -26 16 -41 43 -39 7 0 2 4 -10
9 -31 12 -29 30 2 30 27 0 32 9 13 28 -13 13 -16 13 -35 5z m32 -13 c3 -5 -3
-10 -15 -10 -12 0 -18 5 -15 10 3 6 10 10 15 10 5 0 12 -4 15 -10z"/>
<path d="M2483 7040 c0 -25 2 -35 4 -22 2 12 2 32 0 45 -2 12 -4 2 -4 -23z"/>
<path d="M13430 7050 c0 -5 5 -10 10 -10 6 0 10 5 10 10 0 6 -4 10 -10 10 -5
0 -10 -4 -10 -10z"/>
<path d="M11420 7042 c0 -5 7 -13 16 -16 10 -4 14 -1 12 6 -5 15 -28 23 -28
10z"/>
<path d="M11470 7035 c0 -9 6 -12 15 -9 8 4 15 10 15 15 0 5 -7 9 -15 9 -8 0
-15 -7 -15 -15z"/>
<path d="M1386 7025 c-3 -9 1 -18 10 -22 19 -7 39 11 30 26 -10 16 -33 13 -40
-4z m29 -5 c3 -5 1 -10 -4 -10 -6 0 -11 5 -11 10 0 6 2 10 4 10 3 0 8 -4 11
-10z"/>
<path d="M1310 7020 c0 -5 14 -10 30 -10 17 0 30 5 30 10 0 6 -13 10 -30 10
-16 0 -30 -4 -30 -10z"/>
<path d="M2266 7003 c-6 -14 -5 -15 5 -6 7 7 10 15 7 18 -3 3 -9 -2 -12 -12z"/>
<path d="M11450 7000 c0 -5 5 -10 10 -10 6 0 10 5 10 10 0 6 -4 10 -10 10 -5
0 -10 -4 -10 -10z"/>
<path d="M13430 6995 c0 -8 5 -15 10 -15 6 0 10 7 10 15 0 8 -4 15 -10 15 -5
0 -10 -7 -10 -15z"/>
<path d="M5470 4255 c48 -15 89 -50 114 -100 16 -30 16 -29 16 43 l0 72 -87
-1 -88 0 45 -14z"/>
<path d="M5610 4234 l0 -35 28 19 c15 10 45 26 67 35 l40 16 -67 0 -68 1 0
-36z"/>
<path d="M6480 4025 l0 -245 95 0 95 0 0 -70 0 -70 95 0 95 0 0 115 0 115 -92
200 -93 200 -97 0 -98 0 0 -245z"/>
<path d="M7050 4241 l0 -30 48 26 c26 15 49 28 51 30 2 2 -19 3 -47 3 -51 0
-52 -1 -52 -29z"/>
<path d="M5770 4123 c-135 -51 -148 -263 -20 -330 73 -39 140 -25 197 40 97
111 19 299 -124 296 -21 0 -45 -3 -53 -6z"/>
<path d="M7764 4116 c-17 -8 -44 -31 -60 -51 -40 -53 -46 -151 -12 -210 32
-57 101 -90 165 -80 91 13 154 109 138 210 -5 37 -16 58 -49 93 -39 41 -48 45
-97 49 -33 2 -66 -2 -85 -11z"/>
<path d="M5575 3933 c-11 -21 -39 -51 -63 -67 -37 -27 -52 -30 -132 -34 l-90
-4 0 -94 0 -94 155 0 155 0 0 165 c0 91 -1 165 -2 165 -2 0 -12 -17 -23 -37z"/>
<path d="M8160 3792 l0 -162 111 0 c85 0 109 3 103 13 -13 21 -197 292 -206
302 -4 5 -8 -64 -8 -153z"/>
<path d="M651 3853 c-23 -25 -40 -50 -39 -53 8 -21 81 -91 90 -88 6 2 -5 23
-26 46 -41 45 -40 56 8 101 14 14 26 28 26 33 0 19 -21 5 -59 -39z"/>
<path d="M12950 3892 c0 -5 12 -19 26 -33 48 -45 49 -56 8 -101 -21 -23 -32
-44 -26 -46 9 -3 82 67 90 88 1 3 -16 28 -39 53 -38 44 -59 58 -59 39z"/>
<path d="M6127 3832 c-22 -65 -85 -134 -149 -166 l-52 -26 112 0 112 0 0 120
c0 66 -1 120 -3 120 -1 0 -10 -22 -20 -48z"/>
<path d="M7587 3817 c-23 -57 -67 -108 -124 -146 l-46 -31 96 0 97 0 0 110 c0
61 -1 110 -2 110 -2 0 -11 -19 -21 -43z"/>
<path d="M5610 3670 l0 -30 63 1 62 0 -39 15 c-22 8 -47 21 -56 29 -24 22 -30
19 -30 -15z"/>
<path d="M7620 3670 c0 -30 0 -30 58 -30 l57 0 -41 19 c-23 10 -45 24 -48 30
-13 21 -26 11 -26 -19z"/>
<path d="M7050 3665 c0 -23 4 -25 42 -25 l43 0 -37 25 c-20 14 -39 25 -42 25
-4 0 -6 -11 -6 -25z"/>
<path d="M6480 3492 c-28 -23 -18 -48 26 -67 23 -9 34 -21 34 -35 0 -26 -24
-36 -56 -22 -14 7 -24 8 -24 2 0 -13 44 -23 69 -15 24 7 37 41 21 59 -6 8 -24
19 -40 26 -32 13 -40 44 -14 54 8 3 25 1 37 -5 21 -10 21 -10 3 5 -25 20 -29
20 -56 -2z"/>
<path d="M7290 3503 c-64 -23 -47 -153 20 -153 33 0 60 35 60 78 0 20 -4 42
-8 48 -7 10 -47 35 -54 33 -2 0 -10 -3 -18 -6z m50 -23 c24 -24 26 -67 4 -98
-30 -43 -84 -14 -84 45 0 32 28 73 50 73 6 0 19 -9 30 -20z"/>
<path d="M7493 3498 c-54 -26 -45 -130 13 -144 36 -9 58 6 62 45 3 28 1 31
-25 30 -23 -2 -24 -2 -5 -6 33 -6 31 -50 -3 -59 -34 -8 -65 20 -65 58 0 56 33
88 71 68 13 -7 19 -7 19 0 0 5 -4 10 -9 10 -5 0 -15 2 -23 4 -7 3 -23 0 -35
-6z"/>
<path d="M5673 3425 c0 -44 2 -63 4 -42 5 48 32 50 57 2 11 -19 21 -33 23 -31
3 2 -2 18 -11 34 -14 27 -14 31 0 43 8 7 14 24 12 38 -2 19 -9 27 -28 28 l-25
3 23 -10 c36 -15 26 -54 -15 -58 -30 -3 -32 -1 -36 35 -2 21 -4 2 -4 -42z"/>
<path d="M5810 3425 l0 -75 43 2 42 1 -37 4 c-36 4 -38 6 -38 38 0 31 3 34 33
38 l32 4 -32 1 c-28 2 -33 6 -33 26 0 21 5 25 38 29 l37 4 -42 1 -43 2 0 -75z"/>
<path d="M5937 3425 c-14 -41 -22 -75 -17 -75 4 0 11 11 14 25 5 20 12 25 40
25 28 0 35 -4 40 -26 4 -15 9 -24 12 -21 10 9 -39 147 -52 147 -7 0 -24 -34
-37 -75z m57 13 c6 -25 4 -28 -20 -28 -24 0 -25 2 -19 33 13 58 24 57 39 -5z"/>
<path d="M6060 3425 c0 -43 4 -75 10 -75 6 0 10 32 10 75 0 43 -4 75 -10 75
-6 0 -10 -32 -10 -75z"/>
<path d="M6128 3490 c12 -5 22 -18 22 -30 0 -12 -9 -24 -22 -30 -13 -5 -16 -9
-8 -9 28 -1 42 16 38 45 -2 23 -9 30 -28 31 -25 3 -25 3 -2 -7z"/>
<path d="M6200 3425 l0 -75 48 2 c43 1 44 2 10 5 -36 4 -38 6 -38 38 0 31 3
34 33 38 l32 4 -32 1 c-28 2 -33 6 -33 26 0 21 5 25 38 29 34 3 33 4 -10 5
l-48 2 0 -75z"/>
<path d="M6331 3423 c1 -55 4 -67 8 -43 8 46 35 51 55 11 9 -16 21 -33 28 -37
7 -4 2 9 -9 29 -22 36 -22 37 -3 47 11 6 20 19 20 29 0 23 -25 45 -42 38 -9
-4 -7 -6 4 -6 44 -2 22 -61 -23 -61 -30 0 -31 2 -27 35 2 19 0 35 -4 35 -4 0
-7 -35 -7 -77z"/>
<path d="M6640 3425 c0 -43 4 -75 10 -75 6 0 10 32 10 75 0 43 -4 75 -10 75
-6 0 -10 -32 -10 -75z"/>
<path d="M6708 3490 c12 -5 22 -18 22 -30 0 -12 -9 -24 -22 -30 -13 -5 -16 -9
-8 -9 28 -1 42 16 38 45 -2 23 -9 30 -28 31 -25 3 -25 3 -2 -7z"/>
<path d="M6780 3425 l0 -75 48 2 c43 1 44 2 10 5 l-38 4 0 70 c0 39 -4 69 -10
69 -6 0 -10 -32 -10 -75z"/>
<path d="M6903 3425 c0 -44 2 -61 4 -37 2 23 2 59 0 80 -2 20 -4 1 -4 -43z"/>
<path d="M6960 3426 c0 -50 4 -76 11 -76 8 0 10 20 7 65 -3 36 -3 65 1 65 3 0
22 -29 40 -65 19 -36 39 -65 43 -65 4 0 7 35 6 78 l-2 77 -3 -70 -4 -70 -37
64 c-52 90 -62 90 -62 -3z"/>
<path d="M7123 3425 c0 -44 1 -71 4 -60 6 29 25 65 34 65 4 0 18 -18 30 -40
13 -22 26 -40 31 -40 4 0 -5 21 -21 47 l-29 47 20 31 c17 26 15 24 -15 -7 -19
-21 -37 -38 -40 -38 -3 0 -8 17 -10 38 -2 20 -4 1 -4 -43z"/>
<path d="M7620 3438 c-12 -35 -25 -69 -27 -75 -3 -7 0 -13 5 -13 6 0 12 10 14
23 2 17 11 23 36 25 27 3 34 -1 42 -24 6 -15 13 -25 15 -22 8 7 -40 141 -52
145 -5 2 -20 -25 -33 -59z m53 -20 c-7 -14 -53 -9 -48 5 2 6 10 26 16 42 l11
30 13 -35 c7 -19 10 -38 8 -42z"/>
<path d="M7742 3423 l2 -78 3 68 c3 45 8 65 15 61 6 -4 9 -1 6 6 -2 8 -10 16
-16 18 -9 3 -11 -18 -10 -75z"/>
<path d="M7834 3464 c-8 -20 -13 -38 -11 -41 3 -2 11 11 18 29 l13 33 6 -70 6
-70 2 78 c2 85 -10 99 -34 41z"/>
<path d="M7920 3425 l0 -75 43 2 42 1 -37 4 c-36 4 -38 6 -38 38 0 31 3 34 33
38 l32 4 -32 1 c-28 2 -33 6 -33 26 0 21 5 25 38 29 l37 4 -42 1 -43 2 0 -75z"/>
<path d="M7810 3401 c0 -7 -4 -9 -10 -6 -6 4 -7 -1 -3 -11 6 -15 7 -15 15 1 6
9 7 19 4 22 -3 4 -6 1 -6 -6z"/>
<path d="M5912 378 l3 -73 70 0 70 0 0 70 0 70 -73 3 -73 3 3 -73z m28 37 c0
-23 4 -25 45 -25 41 0 45 2 45 25 0 14 5 25 10 25 6 0 10 -28 10 -65 l0 -65
-65 0 -65 0 0 65 c0 37 4 65 10 65 6 0 10 -11 10 -25z m80 5 c0 -16 -7 -20
-35 -20 -28 0 -35 4 -35 20 0 16 7 20 35 20 28 0 35 -4 35 -20z"/>
<path d="M6178 433 c7 -3 16 -2 19 1 4 3 -2 6 -13 5 -11 0 -14 -3 -6 -6z"/>
<path d="M6282 385 c-7 -9 -8 -15 -2 -15 5 0 10 -6 10 -14 0 -8 4 -17 8 -20 4
-2 6 11 4 30 -2 19 -5 34 -6 34 0 -1 -7 -7 -14 -15z"/>
<path d="M6400 366 c0 -13 3 -17 8 -10 4 7 18 14 32 16 23 3 22 4 -7 9 -28 5
-33 3 -33 -15z"/>
<path d="M6243 356 c1 -11 9 -21 17 -23 10 -3 11 -2 4 4 -6 4 -14 15 -17 23
-5 11 -6 9 -4 -4z"/>
</g>
</svg>
